:FULLY-SPECIFIED
:FORCE-ALL-JOINTS-BE-3DOF
:DEGREES
1020
root 0.245668 13.5564 -35.3871 372.31 -28.1303 342.313
lfemur -70.0243 35.966 -4.05249
ltibia 82.172 0 0
lfoot -12.7273 -8.70378 0
ltoes -5.62181 0 0
rfemur 10.2435 -8.75811 8.75097
rtibia 36.3011 0 0
rfoot -22.6672 -26.1669 0
rtoes -31.5021 0 0
lowerback 10.268 -0.882483 5.47744
upperback -1.83329 0.0530815 8.19032
thorax -7.77508 -0.0521184 5.68845
lowerneck -4.77801 8.32353 3.41679
upperneck 7.88342 10.9685 -1.06793
head 3.6735 5.4897 -0.404448
lclavicle -5.32567e-14 2.29815e-15 0
lhumerus 83.3453 -13.0974 27.7296
lradius 94.2903 0 0
lwrist 10.3223 0 0
lhand -35.4668 31.3985 0
lfingers 7.12502 0 0
lthumb -8.59512 61.2012 0
rclavicle -5.32567e-14 2.29815e-15 0
rhumerus -77.5463 22.951 -95.07
rradius 111.975 0 0
rwrist -63.2148 0 0
rhand -10.1532 -25.2015 0
rfingers 7.12502 0 0
rthumb 15.8361 -54.5737 0
1021
root 0.245029 13.5526 -35.3791 372.309 -28.1364 342.321
lfemur -70.0498 35.9997 -4.07848
ltibia 82.2485 0 0
lfoot -12.8025 -8.67606 0
ltoes -5.70027 0 0
rfemur 10.2804 -8.74839 8.72147
rtibia 36.2747 0 0
rfoot -22.664 -26.1724 0
rtoes -31.4883 0 0
lowerback 10.2483 -0.87388 5.44908
upperback -1.8418 0.0589775 8.17934
thorax -7.77307 -0.0480888 5.69095
lowerneck -4.79294 8.32361 3.41544
upperneck 7.89136 10.9674 -1.05653
head 3.67823 5.48944 -0.399731
lclavicle -5.39761e-14 4.49932e-15 0
lhumerus 83.3272 -12.0101 27.8716
lradius 94.2516 0 0
lwrist 10.0456 0 0
lhand -35.5373 31.2388 0
lfingers 7.12502 0 0
lthumb -8.6632 61.039 0
rclavicle -5.39761e-14 4.49932e-15 0
rhumerus -77.5562 22.968 -95.0798
rradius 111.961 0 0
rwrist -63.2253 0 0
rhand -10.1661 -25.1759 0
rfingers 7.12502 0 0
rthumb 15.8237 -54.5491 0
1022
root 0.24439 13.5487 -35.371 372.309 -28.1424 342.329
lfemur -70.0753 36.0334 -4.10447
ltibia 82.3251 0 0
lfoot -12.8778 -8.64835 0
ltoes -5.77872 0 0
rfemur 10.3174 -8.73866 8.69198
rtibia 36.2484 0 0
rfoot -22.6608 -26.178 0
rtoes -31.4744 0 0
lowerback 10.2287 -0.865278 5.42072
upperback -1.8503 0.0648735 8.16836
thorax -7.77106 -0.0440592 5.69345
lowerneck -4.80788 8.32368 3.4141
upperneck 7.8993 10.9662 -1.04512
head 3.68295 5.48918 -0.395013
lclavicle -5.46955e-14 6.7005e-15 0
lhumerus 83.309 -10.9228 28.0136
lradius 94.213 0 0
lwrist 9.76887 0 0
lhand -35.6078 31.079 0
lfingers 7.12502 0 0
lthumb -8.73129 60.8768 0
rclavicle -5.46955e-14 6.7005e-15 0
rhumerus -77.5661 22.985 -95.0897
rradius 111.947 0 0
rwrist -63.2358 0 0
rhand -10.179 -25.1502 0
rfingers 7.12502 0 0
rthumb 15.8113 -54.5245 0
1023
root 0.243751 13.5449 -35.363 372.308 -28.1485 342.337
lfemur -70.1008 36.0671 -4.13046
ltibia 82.4016 0 0
lfoot -12.953 -8.62063 0
ltoes -5.85718 0 0
rfemur 10.3543 -8.72894 8.66249
rtibia 36.2221 0 0
rfoot -22.6575 -26.1835 0
rtoes -31.4606 0 0
lowerback 10.2091 -0.856675 5.39236
upperback -1.85881 0.0707694 8.15739
thorax -7.76905 -0.0400296 5.69595
lowerneck -4.82282 8.32376 3.41275
upperneck 7.90724 10.9651 -1.03372
head 3.68768 5.48892 -0.390296
lclavicle -5.54149e-14 8.90167e-15 0
lhumerus 83.2909 -9.83543 28.1556
lradius 94.1743 0 0
lwrist 9.49216 0 0
lhand -35.6784 30.9193 0
lfingers 7.12502 0 0
lthumb -8.79937 60.7146 0
rclavicle -5.54149e-14 8.90167e-15 0
rhumerus -77.576 23.002 -95.0995
rradius 111.932 0 0
rwrist -63.2463 0 0
rhand -10.1919 -25.1246 0
rfingers 7.12502 0 0
rthumb 15.7988 -54.4998 0
1024
root 0.243113 13.541 -35.355 372.307 -28.1546 342.344
lfemur -70.1262 36.1009 -4.15646
ltibia 82.4781 0 0
lfoot -13.0282 -8.59291 0
ltoes -5.93563 0 0
rfemur 10.3912 -8.71921 8.633
rtibia 36.1958 0 0
rfoot -22.6543 -26.189 0
rtoes -31.4467 0 0
lowerback 10.1895 -0.848073 5.364
upperback -1.86731 0.0766654 8.14641
thorax -7.76703 -0.0359999 5.69846
lowerneck -4.83776 8.32384 3.41141
upperneck 7.91518 10.964 -1.02232
head 3.69241 5.48865 -0.385579
lclavicle -5.61342e-14 1.11028e-14 0
lhumerus 83.2727 -8.74809 28.2975
lradius 94.1357 0 0
lwrist 9.21545 0 0
lhand -35.7489 30.7595 0
lfingers 7.12502 0 0
lthumb -8.86746 60.5523 0
rclavicle -5.61342e-14 1.11028e-14 0
rhumerus -77.586 23.0189 -95.1093
rradius 111.918 0 0
rwrist -63.2568 0 0
rhand -10.2048 -25.099 0
rfingers 7.12502 0 0
rthumb 15.7864 -54.4752 0
1025
root 0.242474 13.5372 -35.347 372.307 -28.1607 342.352
lfemur -70.1517 36.1346 -4.18245
ltibia 82.5547 0 0
lfoot -13.1034 -8.56519 0
ltoes -6.01409 0 0
rfemur 10.4282 -8.70949 8.6035
rtibia 36.1694 0 0
rfoot -22.6511 -26.1945 0
rtoes -31.4329 0 0
lowerback 10.1699 -0.83947 5.33564
upperback -1.87582 0.0825614 8.13544
thorax -7.76502 -0.0319703 5.70096
lowerneck -4.85269 8.32391 3.41006
upperneck 7.92312 10.9628 -1.01092
head 3.69714 5.48839 -0.380861
lclavicle -5.68536e-14 1.3304e-14 0
lhumerus 83.2546 -7.66076 28.4395
lradius 94.097 0 0
lwrist 8.93874 0 0
lhand -35.8195 30.5998 0
lfingers 7.12502 0 0
lthumb -8.93554 60.3901 0
rclavicle -5.68536e-14 1.3304e-14 0
rhumerus -77.5959 23.0359 -95.1191
rradius 111.904 0 0
rwrist -63.2673 0 0
rhand -10.2177 -25.0733 0
rfingers 7.12502 0 0
rthumb 15.774 -54.4505 0
1026
root 0.241835 13.5333 -35.339 372.306 -28.1668 342.36
lfemur -70.1772 36.1683 -4.20844
ltibia 82.6312 0 0
lfoot -13.1786 -8.53747 0
ltoes -6.09254 0 0
rfemur 10.4651 -8.69976 8.57401
rtibia 36.1431 0 0
rfoot -22.6479 -26.2 0
rtoes -31.419 0 0
lowerback 10.1503 -0.830868 5.30728
upperback -1.88432 0.0884574 8.12446
thorax -7.76301 -0.0279407 5.70346
lowerneck -4.86763 8.32399 3.40872
upperneck 7.93106 10.9617 -0.999513
head 3.70187 5.48813 -0.376144
lclavicle -5.7573e-14 1.55052e-14 0
lhumerus 83.2364 -6.57342 28.5815
lradius 94.0584 0 0
lwrist 8.66203 0 0
lhand -35.89 30.44 0
lfingers 7.12502 0 0
lthumb -9.00363 60.2279 0
rclavicle -5.7573e-14 1.55052e-14 0
rhumerus -77.6058 23.0529 -95.1289
rradius 111.89 0 0
rwrist -63.2778 0 0
rhand -10.2306 -25.0477 0
rfingers 7.12502 0 0
rthumb 15.7616 -54.4259 0
1027
root 0.241781 13.5298 -35.3349 372.323 -28.1789 342.387
lfemur -70.202 36.1278 -4.2177
ltibia 82.6921 0 0
lfoot -13.2481 -8.26745 0
ltoes -6.4991 0 0
rfemur 10.4419 -8.70582 8.53003
rtibia 36.1532 0 0
rfoot -22.6025 -26.2406 0
rtoes -31.49 0 0
lowerback 10.1833 -0.816128 5.28313
upperback -1.87605 0.10587 8.09517
thorax -7.77363 -0.0188621 5.68245
lowerneck -4.8806 8.31663 3.39716
upperneck 7.89703 10.9514 -0.991558
head 3.69091 5.48296 -0.372632
lclavicle -5.43227e-14 1.68967e-14 0
lhumerus 83.2665 -6.35345 28.759
lradius 93.8624 0 0
lwrist 8.74069 0 0
lhand -35.8681 30.4618 0
lfingers 7.12502 0 0
lthumb -8.98247 60.2506 0
rclavicle -5.43227e-14 1.68967e-14 0
rhumerus -77.5913 23.04 -95.1384
rradius 111.868 0 0
rwrist -63.3475 0 0
rhand -10.2131 -25.0854 0
rfingers 7.12502 0 0
rthumb 15.7785 -54.4623 0
1028
root 0.241727 13.5263 -35.3308 372.34 -28.191 342.414
lfemur -70.2269 36.0874 -4.22695
ltibia 82.7529 0 0
lfoot -13.3177 -7.99742 0
ltoes -6.90566 0 0
rfemur 10.4186 -8.71188 8.48605
rtibia 36.1634 0 0
rfoot -22.5571 -26.2812 0
rtoes -31.5611 0 0
lowerback 10.2164 -0.801389 5.25898
upperback -1.86779 0.123283 8.06587
thorax -7.78425 -0.00978359 5.66144
lowerneck -4.89357 8.30927 3.3856
upperneck 7.863 10.9411 -0.983603
head 3.67996 5.47778 -0.369119
lclavicle -5.10725e-14 1.82882e-14 0
lhumerus 83.2965 -6.13348 28.9366
lradius 93.6664 0 0
lwrist 8.81934 0 0
lhand -35.8461 30.4837 0
lfingers 7.12502 0 0
lthumb -8.96131 60.2733 0
rclavicle -5.10725e-14 1.82882e-14 0
rhumerus -77.5768 23.0272 -95.148
rradius 111.847 0 0
rwrist -63.4172 0 0
rhand -10.1955 -25.1231 0
rfingers 7.12502 0 0
rthumb 15.7954 -54.4986 0
1029
root 0.241672 13.5228 -35.3266 372.358 -28.2032 342.441
lfemur -70.2517 36.0469 -4.23621
ltibia 82.8138 0 0
lfoot -13.3872 -7.7274 0
ltoes -7.31221 0 0
rfemur 10.3954 -8.71795 8.44207
rtibia 36.1735 0 0
rfoot -22.5117 -26.3219 0
rtoes -31.6321 0 0
lowerback 10.2494 -0.786649 5.23483
upperback -1.85952 0.140696 8.03658
thorax -7.79488 -0.000705039 5.64043
lowerneck -4.90653 8.30191 3.37404
upperneck 7.82897 10.9308 -0.975648
head 3.669 5.47261 -0.365607
lclavicle -4.78222e-14 1.96797e-14 0
lhumerus 83.3266 -5.9135 29.1141
lradius 93.4704 0 0
lwrist 8.898 0 0
lhand -35.8242 30.5055 0
lfingers 7.12502 0 0
lthumb -8.94015 60.296 0
rclavicle -4.78222e-14 1.96797e-14 0
rhumerus -77.5623 23.0143 -95.1575
rradius 111.825 0 0
rwrist -63.4868 0 0
rhand -10.178 -25.1609 0
rfingers 7.12502 0 0
rthumb 15.8123 -54.535 0
1030
root 0.241618 13.5193 -35.3225 372.375 -28.2153 342.468
lfemur -70.2766 36.0064 -4.24547
ltibia 82.8746 0 0
lfoot -13.4568 -7.45738 0
ltoes -7.71877 0 0
rfemur 10.3721 -8.72401 8.39809
rtibia 36.1837 0 0
rfoot -22.4663 -26.3625 0
rtoes -31.7031 0 0
lowerback 10.2824 -0.771909 5.21068
upperback -1.85125 0.158109 8.00728
thorax -7.8055 0.00837351 5.61942
lowerneck -4.9195 8.29455 3.36248
upperneck 7.79495 10.9204 -0.967693
head 3.65804 5.46744 -0.362094
lclavicle -4.4572e-14 2.10712e-14 0
lhumerus 83.3566 -5.69353 29.2916
lradius 93.2745 0 0
lwrist 8.97665 0 0
lhand -35.8023 30.5273 0
lfingers 7.12502 0 0
lthumb -8.91899 60.3187 0
rclavicle -4.4572e-14 2.10712e-14 0
rhumerus -77.5478 23.0014 -95.1671
rradius 111.803 0 0
rwrist -63.5565 0 0
rhand -10.1604 -25.1986 0
rfingers 7.12502 0 0
rthumb 15.8292 -54.5713 0
1031
root 0.241564 13.5158 -35.3184 372.392 -28.2274 342.494
lfemur -70.3014 35.9659 -4.25472
ltibia 82.9355 0 0
lfoot -13.5263 -7.18735 0
ltoes -8.12533 0 0
rfemur 10.3489 -8.73007 8.35412
rtibia 36.1938 0 0
rfoot -22.421 -26.4031 0
rtoes -31.7741 0 0
lowerback 10.3154 -0.75717 5.18653
upperback -1.84299 0.175521 7.97799
thorax -7.81612 0.0174521 5.59841
lowerneck -4.93247 8.28719 3.35092
upperneck 7.76092 10.9101 -0.959738
head 3.64709 5.46227 -0.358582
lclavicle -4.13217e-14 2.24627e-14 0
lhumerus 83.3867 -5.47356 29.4692
lradius 93.0785 0 0
lwrist 9.05531 0 0
lhand -35.7804 30.5491 0
lfingers 7.12502 0 0
lthumb -8.89783 60.3414 0
rclavicle -4.13217e-14 2.24627e-14 0
rhumerus -77.5333 22.9886 -95.1766
rradius 111.781 0 0
rwrist -63.6262 0 0
rhand -10.1429 -25.2363 0
rfingers 7.12502 0 0
rthumb 15.8461 -54.6077 0
1032
root 0.24151 13.5123 -35.3143 372.409 -28.2395 342.521
lfemur -70.3263 35.9255 -4.26398
ltibia 82.9963 0 0
lfoot -13.5958 -6.91733 0
ltoes -8.53189 0 0
rfemur 10.3256 -8.73613 8.31014
rtibia 36.2039 0 0
rfoot -22.3756 -26.4437 0
rtoes -31.8452 0 0
lowerback 10.3485 -0.74243 5.16238
upperback -1.83472 0.192934 7.94869
thorax -7.82674 0.0265306 5.5774
lowerneck -4.94544 8.27983 3.33936
upperneck 7.72689 10.8998 -0.951782
head 3.63613 5.45709 -0.355069
lclavicle -3.80715e-14 2.38542e-14 0
lhumerus 83.4167 -5.25359 29.6467
lradius 92.8825 0 0
lwrist 9.13396 0 0
lhand -35.7584 30.571 0
lfingers 7.12502 0 0
lthumb -8.87668 60.3641 0
rclavicle -3.80715e-14 2.38542e-14 0
rhumerus -77.5188 22.9757 -95.1862
rradius 111.76 0 0
rwrist -63.6959 0 0
rhand -10.1253 -25.274 0
rfingers 7.12502 0 0
rthumb 15.863 -54.644 0
